<?xml version="1.0" standalone="no"?>
<svg xmlns="http://www.w3.org/2000/svg" xmlns:xlink="http://www.w3.org/1999/xlink" width="854pt" height="354pt" viewBox="0.00 0.00 854 354.06">
<g id="graph0" class="graph" transform="translate(4,350.05999755859375) scale(1)" data-name="tree">

<polygon fill="white" stroke="none" points="-4,4 -4,-350.06 850,-350.06 850,4 -4,4"/>
<!-- n2_1 -->
<g id="node1" class="node" pointer-events="visible" data-name="n2_1">

<ellipse fill="none" stroke="black" cx="315" cy="-250.69" rx="23.25" ry="23.25"/>
<text text-anchor="middle" x="315" y="-246.49" font-family="Times,serif" font-size="14.00">n/2</text>
</g>
<!-- n4_1 -->
<g id="node4" class="node" pointer-events="visible" data-name="n4_1">

<ellipse fill="none" stroke="black" cx="154" cy="-167.93" rx="23.25" ry="23.25"/>
<text text-anchor="middle" x="154" y="-163.73" font-family="Times,serif" font-size="14.00">n/4</text>
</g>
<!-- n2_1&#45;&gt;n4_1 -->
<g id="edge3" class="edge" data-name="n2_1-&gt;n4_1">

<path fill="none" stroke="black" d="M294.28,-239.3C266.51,-225.37 216.98,-200.52 184.82,-184.39"/>
<polygon fill="black" stroke="black" points="186.5,-181.32 175.99,-179.97 183.36,-187.58 186.5,-181.32"/>
</g>
<!-- n4_2 -->
<g id="node5" class="node" pointer-events="visible" data-name="n4_2">

<ellipse fill="none" stroke="black" cx="315" cy="-167.93" rx="23.25" ry="23.25"/>
<text text-anchor="middle" x="315" y="-163.73" font-family="Times,serif" font-size="14.00">n/4</text>
</g>
<!-- n2_1&#45;&gt;n4_2 -->
<g id="edge4" class="edge" data-name="n2_1-&gt;n4_2">

<path fill="none" stroke="black" d="M315,-227.19C315,-219.64 315,-211.05 315,-202.82"/>
<polygon fill="black" stroke="black" points="318.5,-203.1 315,-193.1 311.5,-203.1 318.5,-203.1"/>
</g>
<!-- n2_2 -->
<g id="node2" class="node" pointer-events="visible" data-name="n2_2">

<ellipse fill="none" stroke="black" cx="530" cy="-250.69" rx="23.25" ry="23.25"/>
<text text-anchor="middle" x="530" y="-246.49" font-family="Times,serif" font-size="14.00">n/2</text>
</g>
<!-- n4_3 -->
<g id="node6" class="node" pointer-events="visible" data-name="n4_3">

<ellipse fill="none" stroke="black" cx="530" cy="-167.93" rx="23.25" ry="23.25"/>
<text text-anchor="middle" x="530" y="-163.73" font-family="Times,serif" font-size="14.00">n/4</text>
</g>
<!-- n2_2&#45;&gt;n4_3 -->
<g id="edge5" class="edge" data-name="n2_2-&gt;n4_3">

<path fill="none" stroke="black" d="M530,-227.19C530,-219.64 530,-211.05 530,-202.82"/>
<polygon fill="black" stroke="black" points="533.5,-203.1 530,-193.1 526.5,-203.1 533.5,-203.1"/>
</g>
<!-- n4_4 -->
<g id="node7" class="node" pointer-events="visible" data-name="n4_4">

<ellipse fill="none" stroke="black" cx="692" cy="-167.93" rx="23.25" ry="23.25"/>
<text text-anchor="middle" x="692" y="-163.73" font-family="Times,serif" font-size="14.00">n/4</text>
</g>
<!-- n2_2&#45;&gt;n4_4 -->
<g id="edge6" class="edge" data-name="n2_2-&gt;n4_4">

<path fill="none" stroke="black" d="M550.52,-239.46C578.44,-225.54 628.63,-200.52 661.11,-184.33"/>
<polygon fill="black" stroke="black" points="662.65,-187.48 670.04,-179.88 659.53,-181.21 662.65,-187.48"/>
</g>
<!-- n -->
<g id="node3" class="node" pointer-events="visible" data-name="n">

<ellipse fill="none" stroke="black" cx="422" cy="-328.06" rx="18" ry="18"/>
<text text-anchor="middle" x="422" y="-323.86" font-family="Times,serif" font-size="14.00">n</text>
</g>
<!-- n&#45;&gt;n2_1 -->
<g id="edge1" class="edge" data-name="n-&gt;n2_1">

<path fill="none" stroke="black" d="M407.57,-316.9C391.12,-305.31 363.84,-286.09 343.15,-271.52"/>
<polygon fill="black" stroke="black" points="345.31,-268.76 335.11,-265.86 341.27,-274.48 345.31,-268.76"/>
</g>
<!-- n&#45;&gt;n2_2 -->
<g id="edge2" class="edge" data-name="n-&gt;n2_2">

<path fill="none" stroke="black" d="M436.57,-316.9C453.27,-305.24 481.03,-285.86 501.97,-271.25"/>
<polygon fill="black" stroke="black" points="503.89,-274.18 510.09,-265.59 499.88,-268.44 503.89,-274.18"/>
</g>
<!-- dots_1 -->
<g id="node8" class="node" pointer-events="visible" data-name="dots_1">

<ellipse fill="none" stroke="black" cx="72" cy="-90.28" rx="18.06" ry="18.06"/>
<text text-anchor="middle" x="72" y="-86.08" font-family="Times,serif" font-size="14.00">...</text>
</g>
<!-- n4_1&#45;&gt;dots_1 -->
<g id="edge7" class="edge" data-name="n4_1-&gt;dots_1">

<path fill="none" stroke="black" d="M137.41,-151.62C124.74,-139.94 107.18,-123.74 93.45,-111.07"/>
<polygon fill="black" stroke="black" points="95.9,-108.57 86.18,-104.36 91.15,-113.71 95.9,-108.57"/>
</g>
<!-- dots_2 -->
<g id="node9" class="node" pointer-events="visible" data-name="dots_2">

<ellipse fill="none" stroke="black" cx="154" cy="-90.28" rx="18.06" ry="18.06"/>
<text text-anchor="middle" x="154" y="-86.08" font-family="Times,serif" font-size="14.00">...</text>
</g>
<!-- n4_1&#45;&gt;dots_2 -->
<g id="edge8" class="edge" data-name="n4_1-&gt;dots_2">

<path fill="none" stroke="black" d="M154,-144.24C154,-136.52 154,-127.79 154,-119.68"/>
<polygon fill="black" stroke="black" points="157.5,-119.94 154,-109.94 150.5,-119.94 157.5,-119.94"/>
</g>
<!-- dots_3 -->
<g id="node10" class="node" pointer-events="visible" data-name="dots_3">

<ellipse fill="none" stroke="black" cx="288" cy="-90.28" rx="18.06" ry="18.06"/>
<text text-anchor="middle" x="288" y="-86.08" font-family="Times,serif" font-size="14.00">...</text>
</g>
<!-- n4_2&#45;&gt;dots_3 -->
<g id="edge9" class="edge" data-name="n4_2-&gt;dots_3">

<path fill="none" stroke="black" d="M307.34,-145.46C304.31,-136.98 300.8,-127.15 297.61,-118.2"/>
<polygon fill="black" stroke="black" points="300.96,-117.18 294.3,-108.94 294.37,-119.54 300.96,-117.18"/>
</g>
<!-- dots_4 -->
<g id="node11" class="node" pointer-events="visible" data-name="dots_4">

<ellipse fill="none" stroke="black" cx="343" cy="-90.28" rx="18.06" ry="18.06"/>
<text text-anchor="middle" x="343" y="-86.08" font-family="Times,serif" font-size="14.00">...</text>
</g>
<!-- n4_2&#45;&gt;dots_4 -->
<g id="edge10" class="edge" data-name="n4_2-&gt;dots_4">

<path fill="none" stroke="black" d="M322.8,-145.86C325.94,-137.38 329.6,-127.48 332.94,-118.47"/>
<polygon fill="black" stroke="black" points="336.21,-119.7 336.4,-109.11 329.65,-117.27 336.21,-119.7"/>
</g>
<!-- dots_5 -->
<g id="node12" class="node" pointer-events="visible" data-name="dots_5">

<ellipse fill="none" stroke="black" cx="503" cy="-90.28" rx="18.06" ry="18.06"/>
<text text-anchor="middle" x="503" y="-86.08" font-family="Times,serif" font-size="14.00">...</text>
</g>
<!-- n4_3&#45;&gt;dots_5 -->
<g id="edge11" class="edge" data-name="n4_3-&gt;dots_5">

<path fill="none" stroke="black" d="M522.34,-145.46C519.31,-136.98 515.8,-127.15 512.61,-118.2"/>
<polygon fill="black" stroke="black" points="515.96,-117.18 509.3,-108.94 509.37,-119.54 515.96,-117.18"/>
</g>
<!-- dots_6 -->
<g id="node13" class="node" pointer-events="visible" data-name="dots_6">

<ellipse fill="none" stroke="black" cx="558" cy="-90.28" rx="18.06" ry="18.06"/>
<text text-anchor="middle" x="558" y="-86.08" font-family="Times,serif" font-size="14.00">...</text>
</g>
<!-- n4_3&#45;&gt;dots_6 -->
<g id="edge12" class="edge" data-name="n4_3-&gt;dots_6">

<path fill="none" stroke="black" d="M537.8,-145.86C540.94,-137.38 544.6,-127.48 547.94,-118.47"/>
<polygon fill="black" stroke="black" points="551.21,-119.7 551.4,-109.11 544.65,-117.27 551.21,-119.7"/>
</g>
<!-- dots_7 -->
<g id="node14" class="node" pointer-events="visible" data-name="dots_7">

<ellipse fill="none" stroke="black" cx="692" cy="-90.28" rx="18.06" ry="18.06"/>
<text text-anchor="middle" x="692" y="-86.08" font-family="Times,serif" font-size="14.00">...</text>
</g>
<!-- n4_4&#45;&gt;dots_7 -->
<g id="edge13" class="edge" data-name="n4_4-&gt;dots_7">

<path fill="none" stroke="black" d="M692,-144.24C692,-136.52 692,-127.79 692,-119.68"/>
<polygon fill="black" stroke="black" points="695.5,-119.94 692,-109.94 688.5,-119.94 695.5,-119.94"/>
</g>
<!-- dots_8 -->
<g id="node15" class="node" pointer-events="visible" data-name="dots_8">

<ellipse fill="none" stroke="black" cx="774" cy="-90.28" rx="18.06" ry="18.06"/>
<text text-anchor="middle" x="774" y="-86.08" font-family="Times,serif" font-size="14.00">...</text>
</g>
<!-- n4_4&#45;&gt;dots_8 -->
<g id="edge14" class="edge" data-name="n4_4-&gt;dots_8">

<path fill="none" stroke="black" d="M708.59,-151.62C721.26,-139.94 738.82,-123.74 752.55,-111.07"/>
<polygon fill="black" stroke="black" points="754.85,-113.71 759.82,-104.36 750.1,-108.57 754.85,-113.71"/>
</g>
<!-- n1_1 -->
<g id="node16" class="node" pointer-events="visible" data-name="n1_1">

<ellipse fill="none" stroke="black" cx="18" cy="-18" rx="18" ry="18"/>
<text text-anchor="middle" x="18" y="-13.8" font-family="Times,serif" font-size="14.00">1</text>
</g>
<!-- dots_1&#45;&gt;n1_1 -->
<g id="edge15" class="edge" data-name="dots_1-&gt;n1_1">

<path fill="none" stroke="black" d="M61.33,-75.39C54.01,-65.86 44.12,-52.99 35.64,-41.96"/>
<polygon fill="black" stroke="black" points="38.44,-39.85 29.57,-34.06 32.89,-44.12 38.44,-39.85"/>
</g>
<!-- n1_2 -->
<g id="node17" class="node" pointer-events="visible" data-name="n1_2">

<ellipse fill="none" stroke="black" cx="72" cy="-18" rx="18" ry="18"/>
<text text-anchor="middle" x="72" y="-13.8" font-family="Times,serif" font-size="14.00">1</text>
</g>
<!-- dots_1&#45;&gt;n1_2 -->
<g id="edge16" class="edge" data-name="dots_1-&gt;n1_2">

<path fill="none" stroke="black" d="M72,-71.91C72,-64.59 72,-55.87 72,-47.65"/>
<polygon fill="black" stroke="black" points="75.5,-47.69 72,-37.69 68.5,-47.69 75.5,-47.69"/>
</g>
<!-- n1_3 -->
<g id="node18" class="node" pointer-events="visible" data-name="n1_3">

<ellipse fill="none" stroke="black" cx="126" cy="-18" rx="18" ry="18"/>
<text text-anchor="middle" x="126" y="-13.8" font-family="Times,serif" font-size="14.00">1</text>
</g>
<!-- dots_2&#45;&gt;n1_3 -->
<g id="edge17" class="edge" data-name="dots_2-&gt;n1_3">

<path fill="none" stroke="black" d="M147.51,-72.98C144.29,-64.91 140.32,-54.95 136.68,-45.8"/>
<polygon fill="black" stroke="black" points="139.97,-44.61 133.02,-36.62 133.47,-47.2 139.97,-44.61"/>
</g>
<!-- n1_4 -->
<g id="node19" class="node" pointer-events="visible" data-name="n1_4">

<ellipse fill="none" stroke="black" cx="180" cy="-18" rx="18" ry="18"/>
<text text-anchor="middle" x="180" y="-13.8" font-family="Times,serif" font-size="14.00">1</text>
</g>
<!-- dots_2&#45;&gt;n1_4 -->
<g id="edge18" class="edge" data-name="dots_2-&gt;n1_4">

<path fill="none" stroke="black" d="M160.03,-72.98C163.02,-64.91 166.7,-54.95 170.09,-45.8"/>
<polygon fill="black" stroke="black" points="173.29,-47.22 173.48,-36.63 166.72,-44.8 173.29,-47.22"/>
</g>
<!-- n1_5 -->
<g id="node20" class="node" pointer-events="visible" data-name="n1_5">

<ellipse fill="none" stroke="black" cx="234" cy="-18" rx="18" ry="18"/>
<text text-anchor="middle" x="234" y="-13.8" font-family="Times,serif" font-size="14.00">1</text>
</g>
<!-- dots_3&#45;&gt;n1_5 -->
<g id="edge19" class="edge" data-name="dots_3-&gt;n1_5">

<path fill="none" stroke="black" d="M277.33,-75.39C270.01,-65.86 260.12,-52.99 251.64,-41.96"/>
<polygon fill="black" stroke="black" points="254.44,-39.85 245.57,-34.06 248.89,-44.12 254.44,-39.85"/>
</g>
<!-- n1_6 -->
<g id="node21" class="node" pointer-events="visible" data-name="n1_6">

<ellipse fill="none" stroke="black" cx="288" cy="-18" rx="18" ry="18"/>
<text text-anchor="middle" x="288" y="-13.8" font-family="Times,serif" font-size="14.00">1</text>
</g>
<!-- dots_3&#45;&gt;n1_6 -->
<g id="edge20" class="edge" data-name="dots_3-&gt;n1_6">

<path fill="none" stroke="black" d="M288,-71.91C288,-64.59 288,-55.87 288,-47.65"/>
<polygon fill="black" stroke="black" points="291.5,-47.69 288,-37.69 284.5,-47.69 291.5,-47.69"/>
</g>
<!-- n1_7 -->
<g id="node22" class="node" pointer-events="visible" data-name="n1_7">

<ellipse fill="none" stroke="black" cx="342" cy="-18" rx="18" ry="18"/>
<text text-anchor="middle" x="342" y="-13.8" font-family="Times,serif" font-size="14.00">1</text>
</g>
<!-- dots_4&#45;&gt;n1_7 -->
<g id="edge21" class="edge" data-name="dots_4-&gt;n1_7">

<path fill="none" stroke="black" d="M342.75,-71.91C342.65,-64.59 342.52,-55.87 342.41,-47.65"/>
<polygon fill="black" stroke="black" points="345.91,-47.64 342.27,-37.69 338.91,-47.73 345.91,-47.64"/>
</g>
<!-- n1_8 -->
<g id="node23" class="node" pointer-events="visible" data-name="n1_8">

<ellipse fill="none" stroke="black" cx="396" cy="-18" rx="18" ry="18"/>
<text text-anchor="middle" x="396" y="-13.8" font-family="Times,serif" font-size="14.00">1</text>
</g>
<!-- dots_4&#45;&gt;n1_8 -->
<g id="edge22" class="edge" data-name="dots_4-&gt;n1_8">

<path fill="none" stroke="black" d="M353.47,-75.39C360.66,-65.86 370.36,-52.99 378.69,-41.96"/>
<polygon fill="black" stroke="black" points="381.41,-44.16 384.64,-34.06 375.82,-39.94 381.41,-44.16"/>
</g>
<!-- n1_9 -->
<g id="node24" class="node" pointer-events="visible" data-name="n1_9">

<ellipse fill="none" stroke="black" cx="450" cy="-18" rx="18" ry="18"/>
<text text-anchor="middle" x="450" y="-13.8" font-family="Times,serif" font-size="14.00">1</text>
</g>
<!-- dots_5&#45;&gt;n1_9 -->
<g id="edge23" class="edge" data-name="dots_5-&gt;n1_9">

<path fill="none" stroke="black" d="M492.53,-75.39C485.34,-65.86 475.64,-52.99 467.31,-41.96"/>
<polygon fill="black" stroke="black" points="470.18,-39.94 461.36,-34.06 464.59,-44.16 470.18,-39.94"/>
</g>
<!-- n1_10 -->
<g id="node25" class="node" pointer-events="visible" data-name="n1_10">

<ellipse fill="none" stroke="black" cx="504" cy="-18" rx="18" ry="18"/>
<text text-anchor="middle" x="504" y="-13.8" font-family="Times,serif" font-size="14.00">1</text>
</g>
<!-- dots_5&#45;&gt;n1_10 -->
<g id="edge24" class="edge" data-name="dots_5-&gt;n1_10">

<path fill="none" stroke="black" d="M503.25,-71.91C503.35,-64.59 503.48,-55.87 503.59,-47.65"/>
<polygon fill="black" stroke="black" points="507.09,-47.73 503.73,-37.69 500.09,-47.64 507.09,-47.73"/>
</g>
<!-- n1_11 -->
<g id="node26" class="node" pointer-events="visible" data-name="n1_11">

<ellipse fill="none" stroke="black" cx="558" cy="-18" rx="18" ry="18"/>
<text text-anchor="middle" x="558" y="-13.8" font-family="Times,serif" font-size="14.00">1</text>
</g>
<!-- dots_6&#45;&gt;n1_11 -->
<g id="edge25" class="edge" data-name="dots_6-&gt;n1_11">

<path fill="none" stroke="black" d="M558,-71.91C558,-64.59 558,-55.87 558,-47.65"/>
<polygon fill="black" stroke="black" points="561.5,-47.69 558,-37.69 554.5,-47.69 561.5,-47.69"/>
</g>
<!-- n1_12 -->
<g id="node27" class="node" pointer-events="visible" data-name="n1_12">

<ellipse fill="none" stroke="black" cx="612" cy="-18" rx="18" ry="18"/>
<text text-anchor="middle" x="612" y="-13.8" font-family="Times,serif" font-size="14.00">1</text>
</g>
<!-- dots_6&#45;&gt;n1_12 -->
<g id="edge26" class="edge" data-name="dots_6-&gt;n1_12">

<path fill="none" stroke="black" d="M568.67,-75.39C575.99,-65.86 585.88,-52.99 594.36,-41.96"/>
<polygon fill="black" stroke="black" points="597.11,-44.12 600.43,-34.06 591.56,-39.85 597.11,-44.12"/>
</g>
<!-- n1_13 -->
<g id="node28" class="node" pointer-events="visible" data-name="n1_13">

<ellipse fill="none" stroke="black" cx="666" cy="-18" rx="18" ry="18"/>
<text text-anchor="middle" x="666" y="-13.8" font-family="Times,serif" font-size="14.00">1</text>
</g>
<!-- dots_7&#45;&gt;n1_13 -->
<g id="edge27" class="edge" data-name="dots_7-&gt;n1_13">

<path fill="none" stroke="black" d="M685.97,-72.98C682.98,-64.91 679.3,-54.95 675.91,-45.8"/>
<polygon fill="black" stroke="black" points="679.28,-44.8 672.52,-36.63 672.71,-47.22 679.28,-44.8"/>
</g>
<!-- n1_14 -->
<g id="node29" class="node" pointer-events="visible" data-name="n1_14">

<ellipse fill="none" stroke="black" cx="720" cy="-18" rx="18" ry="18"/>
<text text-anchor="middle" x="720" y="-13.8" font-family="Times,serif" font-size="14.00">1</text>
</g>
<!-- dots_7&#45;&gt;n1_14 -->
<g id="edge28" class="edge" data-name="dots_7-&gt;n1_14">

<path fill="none" stroke="black" d="M698.49,-72.98C701.71,-64.91 705.68,-54.95 709.32,-45.8"/>
<polygon fill="black" stroke="black" points="712.53,-47.2 712.98,-36.62 706.03,-44.61 712.53,-47.2"/>
</g>
<!-- n1_15 -->
<g id="node30" class="node" pointer-events="visible" data-name="n1_15">

<ellipse fill="none" stroke="black" cx="774" cy="-18" rx="18" ry="18"/>
<text text-anchor="middle" x="774" y="-13.8" font-family="Times,serif" font-size="14.00">1</text>
</g>
<!-- dots_8&#45;&gt;n1_15 -->
<g id="edge29" class="edge" data-name="dots_8-&gt;n1_15">

<path fill="none" stroke="black" d="M774,-71.91C774,-64.59 774,-55.87 774,-47.65"/>
<polygon fill="black" stroke="black" points="777.5,-47.69 774,-37.69 770.5,-47.69 777.5,-47.69"/>
</g>
<!-- n1_16 -->
<g id="node31" class="node" pointer-events="visible" data-name="n1_16">

<ellipse fill="none" stroke="black" cx="828" cy="-18" rx="18" ry="18"/>
<text text-anchor="middle" x="828" y="-13.8" font-family="Times,serif" font-size="14.00">1</text>
</g>
<!-- dots_8&#45;&gt;n1_16 -->
<g id="edge30" class="edge" data-name="dots_8-&gt;n1_16">

<path fill="none" stroke="black" d="M784.67,-75.39C791.99,-65.86 801.88,-52.99 810.36,-41.96"/>
<polygon fill="black" stroke="black" points="813.11,-44.12 816.43,-34.06 807.56,-39.85 813.11,-44.12"/>
</g>
</g>
</svg>