<?xml version="1.0" standalone="no"?>
<svg xmlns="http://www.w3.org/2000/svg" xmlns:xlink="http://www.w3.org/1999/xlink" width="841pt" height="980pt" viewBox="0.00 0.00 840.89 980">
<g id="graph0" class="graph" transform="translate(4,976) scale(1)" data-name="coin_change">

<polygon fill="white" stroke="none" points="-4,4 -4,-976 836.89,-976 836.89,4 -4,4"/>
<!-- node1 -->
<g id="node1" class="node" pointer-events="visible" data-name="node1">

<ellipse fill="none" stroke="rgb(0, 0, 255)" stroke-width="2" cx="574.25" cy="-954" rx="47" ry="18"/>
<text text-anchor="middle" x="574.25" y="-949.8" font-family="Times,serif" font-size="14.00">CC(11,3)</text>
</g>
<!-- node2 -->
<g id="node2" class="node" pointer-events="visible" data-name="node2">

<ellipse fill="none" stroke="rgb(255, 0, 255)" cx="417.25" cy="-882" rx="47" ry="18" stroke-width="2"/>
<text text-anchor="middle" x="417.25" y="-877.8" font-family="Times,serif" font-size="14.00">CC(11,2)</text>
</g>
<!-- node1&#45;&gt;node2 -->
<g id="edge1" class="edge" data-name="node1-&gt;node2">

<path fill="none" stroke="black" d="M544.35,-939.67C519.69,-928.67 484.47,-912.97 457.36,-900.88"/>
<polygon fill="black" stroke="black" points="458.98,-897.77 448.42,-896.9 456.13,-904.17 458.98,-897.77"/>
</g>
<!-- node3 -->
<g id="node45" class="node" pointer-events="visible" data-name="node3">

<ellipse fill="none" stroke="rgb(0, 0, 255)" stroke-width="2" cx="681.25" cy="-882" rx="42.34" ry="18"/>
<text text-anchor="middle" x="681.25" y="-877.8" font-family="Times,serif" font-size="14.00">CC(1,3)</text>
</g>
<!-- node1&#45;&gt;node3 -->
<g id="edge44" class="edge" data-name="node1-&gt;node3">

<path fill="none" stroke="black" d="M597.2,-937.98C612.5,-927.98 632.81,-914.69 649.63,-903.69"/>
<polygon fill="black" stroke="black" points="651.35,-906.74 657.8,-898.34 647.52,-900.89 651.35,-906.74"/>
</g>
<!-- node4 -->
<g id="node3" class="node" pointer-events="visible" data-name="node4">

<ellipse fill="none" stroke="rgb(0, 0, 0)" cx="160.25" cy="-810" rx="47" ry="18"/>
<text text-anchor="middle" x="160.25" y="-805.8" font-family="Times,serif" font-size="14.00">CC(11,1)</text>
</g>
<!-- node2&#45;&gt;node4 -->
<g id="edge2" class="edge" data-name="node2-&gt;node4">

<path fill="none" stroke="black" d="M379.6,-870.75C334.33,-858.42 258.26,-837.7 208.66,-824.19"/>
<polygon fill="black" stroke="black" points="209.61,-820.82 199.04,-821.56 207.77,-827.57 209.61,-820.82"/>
</g>
<!-- node5 -->
<g id="node26" class="node" pointer-events="visible" data-name="node5">

<ellipse fill="none" stroke="rgb(255, 0, 255)" cx="417.25" cy="-810" rx="42.34" ry="18" stroke-width="2"/>
<text text-anchor="middle" x="417.25" y="-805.8" font-family="Times,serif" font-size="14.00">CC(6,2)</text>
</g>
<!-- node2&#45;&gt;node5 -->
<g id="edge25" class="edge" data-name="node2-&gt;node5">

<path fill="none" stroke="black" d="M417.25,-863.7C417.25,-856.41 417.25,-847.73 417.25,-839.54"/>
<polygon fill="black" stroke="black" points="420.75,-839.62 417.25,-829.62 413.75,-839.62 420.75,-839.62"/>
</g>
<!-- node10 -->
<g id="node27" class="node" pointer-events="visible" data-name="node10">

<ellipse fill="none" stroke="rgb(0, 0, 0)" cx="366.25" cy="-738" rx="42.34" ry="18"/>
<text text-anchor="middle" x="366.25" y="-733.8" font-family="Times,serif" font-size="14.00">CC(6,1)</text>
</g><g id="node4" class="node" pointer-events="visible" data-name="node8" data-comment="node10">

<ellipse fill="none" stroke="red" stroke-width="2" cx="47.25" cy="-738" rx="47" ry="18" style=""/>
<text text-anchor="middle" x="47.25" y="-733.8" font-family="Times,serif" font-size="14.00" style="">CC(11,0)</text>
</g>
<!-- node5&#45;&gt;node10 -->
<g id="edge26" class="edge" data-name="node5-&gt;node10">

<path fill="none" stroke="black" d="M405.16,-792.41C399.13,-784.13 391.7,-773.92 384.95,-764.66"/>
<polygon fill="black" stroke="black" points="387.86,-762.71 379.14,-756.69 382.2,-766.84 387.86,-762.71"/>
</g><g id="edge3" class="edge" data-name="node4-&gt;node8" data-comment="node5-&gt;node10">

<path fill="none" stroke="black" d="M136.29,-794.15C120.11,-784.13 98.53,-770.76 80.66,-759.7"/>
<polygon fill="black" stroke="black" points="82.81,-756.91 72.47,-754.62 79.12,-762.86 82.81,-756.91"/>
</g>
<!-- node11 -->
<g id="node40" class="node" pointer-events="visible" data-name="node11">

<ellipse fill="none" stroke="rgb(255, 0, 255)" cx="469.25" cy="-738" rx="42.34" ry="18" stroke-width="2"/>
<text text-anchor="middle" x="469.25" y="-733.8" font-family="Times,serif" font-size="14.00">CC(1,2)</text>
</g><g id="node5" class="node" pointer-events="visible" data-name="node9" data-comment="node11">

<ellipse fill="none" stroke="black" cx="160.25" cy="-738" rx="47" ry="18" style=""/>
<text text-anchor="middle" x="160.25" y="-733.8" font-family="Times,serif" font-size="14.00" style="">CC(10,1)</text>
</g>
<!-- node5&#45;&gt;node11 -->
<g id="edge39" class="edge" data-name="node5-&gt;node11">

<path fill="none" stroke="black" d="M429.57,-792.41C435.73,-784.13 443.31,-773.92 450.19,-764.66"/>
<polygon fill="black" stroke="black" points="452.96,-766.8 456.11,-756.68 447.34,-762.63 452.96,-766.8"/>
</g><g id="edge4" class="edge" data-name="node4-&gt;node9" data-comment="node5-&gt;node11">

<path fill="none" stroke="black" d="M160.25,-791.7C160.25,-784.41 160.25,-775.73 160.25,-767.54"/>
<polygon fill="black" stroke="black" points="163.75,-767.62 160.25,-757.62 156.75,-767.62 163.75,-767.62"/>
</g>
<!-- node22 -->
<g id="node41" class="node" pointer-events="visible" data-name="node22">

<ellipse fill="none" stroke="rgb(0, 0, 0)" cx="469.25" cy="-666" rx="42.34" ry="18"/>
<text text-anchor="middle" x="469.25" y="-661.8" font-family="Times,serif" font-size="14.00">CC(1,1)</text>
</g><g id="node6" class="node" pointer-events="visible" data-name="node18" data-comment="node22">

<ellipse fill="none" stroke="red" stroke-width="2" cx="52.25" cy="-666" rx="47" ry="18" style=""/>
<text text-anchor="middle" x="52.25" y="-661.8" font-family="Times,serif" font-size="14.00" style="">CC(10,0)</text>
</g>
<!-- node11&#45;&gt;node22 -->
<g id="edge40" class="edge" data-name="node11-&gt;node22">

<path fill="none" stroke="black" d="M469.25,-719.7C469.25,-712.41 469.25,-703.73 469.25,-695.54"/>
<polygon fill="black" stroke="black" points="472.75,-695.62 469.25,-685.62 465.75,-695.62 472.75,-695.62"/>
</g><g id="edge5" class="edge" data-name="node9-&gt;node18" data-comment="node11-&gt;node22">

<path fill="none" stroke="black" d="M137.08,-721.98C121.85,-712.11 101.69,-699.05 84.85,-688.13" style=""/>
<polygon fill="black" stroke="black" points="86.95,-685.32 76.65,-682.82 83.14,-691.19 86.95,-685.32" style=""/>
</g>
<!-- node23 -->
<g id="node44" class="node" pointer-events="visible" data-name="node23">

<ellipse fill="none" stroke="rgb(255, 0, 0)" cx="575.25" cy="-666" rx="45.78" ry="18" stroke-width="2"/>
<text text-anchor="middle" x="575.25" y="-661.8" font-family="Times,serif" font-size="14.00">CC(-4,2)</text>
</g><g id="node7" class="node" pointer-events="visible" data-name="node19" data-comment="node23">

<ellipse fill="none" stroke="black" cx="160.25" cy="-666" rx="42.34" ry="18" style=""/>
<text text-anchor="middle" x="160.25" y="-661.8" font-family="Times,serif" font-size="14.00" style="">CC(9,1)</text>
</g>
<!-- node11&#45;&gt;node23 -->
<g id="edge43" class="edge" data-name="node11-&gt;node23">

<path fill="none" stroke="black" d="M491.47,-722.33C506.49,-712.41 526.56,-699.15 543.29,-688.1"/>
<polygon fill="black" stroke="black" points="545.01,-691.16 551.43,-682.73 541.16,-685.32 545.01,-691.16"/>
</g><g id="edge6" class="edge" data-name="node9-&gt;node19" data-comment="node11-&gt;node23">

<path fill="none" stroke="black" d="M160.25,-719.7C160.25,-712.41 160.25,-703.73 160.25,-695.54" style=""/>
<polygon fill="black" stroke="black" points="163.75,-695.62 160.25,-685.62 156.75,-695.62 163.75,-695.62" style=""/>
</g>
<!-- node46 -->
<g id="node8" class="node" pointer-events="visible" data-name="node38" data-comment="node46">

<ellipse fill="none" stroke="red" stroke-width="2" cx="57.25" cy="-594" rx="42.34" ry="18" style=""/>
<text text-anchor="middle" x="57.25" y="-589.8" font-family="Times,serif" font-size="14.00" style="">CC(9,0)</text>
</g>
<!-- node23&#45;&gt;node46 -->
<g id="edge7" class="edge" data-name="node19-&gt;node38" data-comment="node23-&gt;node46">

<path fill="none" stroke="black" d="M138.41,-650.15C123.79,-640.22 104.35,-627.01 88.16,-616.01" style=""/>
<polygon fill="black" stroke="black" points="90.55,-613.4 80.31,-610.67 86.62,-619.19 90.55,-613.4" style=""/>
</g>
<!-- node47 -->
<g id="node9" class="node" pointer-events="visible" data-name="node39" data-comment="node47">

<ellipse fill="none" stroke="black" cx="160.25" cy="-594" rx="42.34" ry="18" style=""/>
<text text-anchor="middle" x="160.25" y="-589.8" font-family="Times,serif" font-size="14.00" style="">CC(8,1)</text>
</g>
<!-- node23&#45;&gt;node47 -->
<g id="edge8" class="edge" data-name="node19-&gt;node39" data-comment="node23-&gt;node47">

<path fill="none" stroke="black" d="M160.25,-647.7C160.25,-640.41 160.25,-631.73 160.25,-623.54" style=""/>
<polygon fill="black" stroke="black" points="163.75,-623.62 160.25,-613.62 156.75,-623.62 163.75,-623.62" style=""/>
</g>
<!-- node94 -->
<g id="node10" class="node" pointer-events="visible" data-name="node78" data-comment="node94">

<ellipse fill="none" stroke="red" stroke-width="2" cx="109.25" cy="-522" rx="42.34" ry="18" style=""/>
<text text-anchor="middle" x="109.25" y="-517.8" font-family="Times,serif" font-size="14.00" style="">CC(8,0)</text>
</g>
<!-- node47&#45;&gt;node94 -->
<g id="edge9" class="edge" data-name="node39-&gt;node78" data-comment="node47-&gt;node94">

<path fill="none" stroke="black" d="M148.16,-576.41C142.13,-568.13 134.7,-557.92 127.95,-548.66" style=""/>
<polygon fill="black" stroke="black" points="130.86,-546.71 122.14,-540.69 125.2,-550.84 130.86,-546.71" style=""/>
</g>
<!-- node95 -->
<g id="node11" class="node" pointer-events="visible" data-name="node79" data-comment="node95">

<ellipse fill="none" stroke="black" cx="212.25" cy="-522" rx="42.34" ry="18" style=""/>
<text text-anchor="middle" x="212.25" y="-517.8" font-family="Times,serif" font-size="14.00" style="">CC(7,1)</text>
</g>
<!-- node47&#45;&gt;node95 -->
<g id="edge10" class="edge" data-name="node39-&gt;node79" data-comment="node47-&gt;node95">

<path fill="none" stroke="black" d="M172.57,-576.41C178.73,-568.13 186.31,-557.92 193.19,-548.66" style=""/>
<polygon fill="black" stroke="black" points="195.96,-550.8 199.11,-540.68 190.34,-546.63 195.96,-550.8" style=""/>
</g>
<!-- node190 -->
<g id="node12" class="node" pointer-events="visible" data-name="node158" data-comment="node190">

<ellipse fill="none" stroke="red" stroke-width="2" cx="212.25" cy="-450" rx="42.34" ry="18" style=""/>
<text text-anchor="middle" x="212.25" y="-445.8" font-family="Times,serif" font-size="14.00" style="">CC(7,0)</text>
</g>
<!-- node95&#45;&gt;node190 -->
<g id="edge11" class="edge" data-name="node79-&gt;node158" data-comment="node95-&gt;node190">

<path fill="none" stroke="black" d="M212.25,-503.7C212.25,-496.41 212.25,-487.73 212.25,-479.54" style=""/>
<polygon fill="black" stroke="black" points="215.75,-479.62 212.25,-469.62 208.75,-479.62 215.75,-479.62" style=""/>
</g>
<!-- node191 -->
<g id="node13" class="node" pointer-events="visible" data-name="node159" data-comment="node191">

<ellipse fill="none" stroke="black" cx="315.25" cy="-450" rx="42.34" ry="18" style=""/>
<text text-anchor="middle" x="315.25" y="-445.8" font-family="Times,serif" font-size="14.00" style="">CC(6,1)</text>
</g>
<!-- node95&#45;&gt;node191 -->
<g id="edge12" class="edge" data-name="node79-&gt;node159" data-comment="node95-&gt;node191">

<path fill="none" stroke="black" d="M234.09,-506.15C248.71,-496.22 268.15,-483.01 284.34,-472.01" style=""/>
<polygon fill="black" stroke="black" points="285.88,-475.19 292.19,-466.67 281.95,-469.4 285.88,-475.19" style=""/>
</g>
<!-- node382 -->
<g id="node14" class="node" pointer-events="visible" data-name="node318" data-comment="node382">

<ellipse fill="none" stroke="red" stroke-width="2" cx="315.25" cy="-378" rx="42.34" ry="18" style=""/>
<text text-anchor="middle" x="315.25" y="-373.8" font-family="Times,serif" font-size="14.00" style="">CC(6,0)</text>
</g>
<!-- node191&#45;&gt;node382 -->
<g id="edge13" class="edge" data-name="node159-&gt;node318" data-comment="node191-&gt;node382">

<path fill="none" stroke="black" d="M315.25,-431.7C315.25,-424.41 315.25,-415.73 315.25,-407.54" style=""/>
<polygon fill="black" stroke="black" points="318.75,-407.62 315.25,-397.62 311.75,-407.62 318.75,-407.62" style=""/>
</g>
<!-- node383 -->
<g id="node15" class="node" pointer-events="visible" data-name="node319" data-comment="node383">

<ellipse fill="none" stroke="black" cx="418.25" cy="-378" rx="42.34" ry="18" style=""/>
<text text-anchor="middle" x="418.25" y="-373.8" font-family="Times,serif" font-size="14.00" style="">CC(5,1)</text>
</g>
<!-- node191&#45;&gt;node383 -->
<g id="edge14" class="edge" data-name="node159-&gt;node319" data-comment="node191-&gt;node383">

<path fill="none" stroke="black" d="M337.09,-434.15C351.71,-424.22 371.15,-411.01 387.34,-400.01" style=""/>
<polygon fill="black" stroke="black" points="388.88,-403.19 395.19,-394.67 384.95,-397.4 388.88,-403.19" style=""/>
</g>
<!-- node766 -->
<g id="node16" class="node" pointer-events="visible" data-name="node638" data-comment="node766">

<ellipse fill="none" stroke="red" stroke-width="2" cx="340.25" cy="-306" rx="42.34" ry="18" style=""/>
<text text-anchor="middle" x="340.25" y="-301.8" font-family="Times,serif" font-size="14.00" style="">CC(5,0)</text>
</g>
<!-- node383&#45;&gt;node766 -->
<g id="edge15" class="edge" data-name="node319-&gt;node638" data-comment="node383-&gt;node766">

<path fill="none" stroke="black" d="M400.94,-361.46C390.71,-352.29 377.56,-340.49 366.12,-330.22" style=""/>
<polygon fill="black" stroke="black" points="368.69,-327.82 358.91,-323.74 364.01,-333.03 368.69,-327.82" style=""/>
</g>
<!-- node767 -->
<g id="node17" class="node" pointer-events="visible" data-name="node639" data-comment="node767">

<ellipse fill="none" stroke="black" cx="443.25" cy="-306" rx="42.34" ry="18" style=""/>
<text text-anchor="middle" x="443.25" y="-301.8" font-family="Times,serif" font-size="14.00" style="">CC(4,1)</text>
</g>
<!-- node383&#45;&gt;node767 -->
<g id="edge16" class="edge" data-name="node319-&gt;node639" data-comment="node383-&gt;node767">

<path fill="none" stroke="black" d="M424.43,-359.7C427.12,-352.15 430.35,-343.12 433.36,-334.68" style=""/>
<polygon fill="black" stroke="black" points="436.56,-336.12 436.63,-325.53 429.97,-333.77 436.56,-336.12" style=""/>
</g>
<!-- node1534 -->
<g id="node18" class="node" pointer-events="visible" data-name="node1278" data-comment="node1534">

<ellipse fill="none" stroke="red" stroke-width="2" cx="392.25" cy="-234" rx="42.34" ry="18" style=""/>
<text text-anchor="middle" x="392.25" y="-229.8" font-family="Times,serif" font-size="14.00" style="">CC(4,0)</text>
</g>
<!-- node767&#45;&gt;node1534 -->
<g id="edge17" class="edge" data-name="node639-&gt;node1278" data-comment="node767-&gt;node1534">

<path fill="none" stroke="black" d="M431.16,-288.41C425.13,-280.13 417.7,-269.92 410.95,-260.66" style=""/>
<polygon fill="black" stroke="black" points="413.86,-258.71 405.14,-252.69 408.2,-262.84 413.86,-258.71" style=""/>
</g>
<!-- node1535 -->
<g id="node19" class="node" pointer-events="visible" data-name="node1279" data-comment="node1535">

<ellipse fill="none" stroke="black" cx="495.25" cy="-234" rx="42.34" ry="18" style=""/>
<text text-anchor="middle" x="495.25" y="-229.8" font-family="Times,serif" font-size="14.00" style="">CC(3,1)</text>
</g>
<!-- node767&#45;&gt;node1535 -->
<g id="edge18" class="edge" data-name="node639-&gt;node1279" data-comment="node767-&gt;node1535">

<path fill="none" stroke="black" d="M455.57,-288.41C461.73,-280.13 469.31,-269.92 476.19,-260.66" style=""/>
<polygon fill="black" stroke="black" points="478.96,-262.8 482.11,-252.68 473.34,-258.63 478.96,-262.8" style=""/>
</g>
<!-- node3070 -->
<g id="node20" class="node" pointer-events="visible" data-name="node2558" data-comment="node3070">

<ellipse fill="none" stroke="red" stroke-width="2" cx="444.25" cy="-162" rx="42.34" ry="18" style=""/>
<text text-anchor="middle" x="444.25" y="-157.8" font-family="Times,serif" font-size="14.00" style="">CC(3,0)</text>
</g>
<!-- node1535&#45;&gt;node3070 -->
<g id="edge19" class="edge" data-name="node1279-&gt;node2558" data-comment="node1535-&gt;node3070">

<path fill="none" stroke="black" d="M483.16,-216.41C477.13,-208.13 469.7,-197.92 462.95,-188.66" style=""/>
<polygon fill="black" stroke="black" points="465.86,-186.71 457.14,-180.69 460.2,-190.84 465.86,-186.71" style=""/>
</g>
<!-- node3071 -->
<g id="node21" class="node" pointer-events="visible" data-name="node2559" data-comment="node3071">

<ellipse fill="none" stroke="black" cx="547.25" cy="-162" rx="42.34" ry="18" style=""/>
<text text-anchor="middle" x="547.25" y="-157.8" font-family="Times,serif" font-size="14.00" style="">CC(2,1)</text>
</g>
<!-- node1535&#45;&gt;node3071 -->
<g id="edge20" class="edge" data-name="node1279-&gt;node2559" data-comment="node1535-&gt;node3071">

<path fill="none" stroke="black" d="M507.57,-216.41C513.73,-208.13 521.31,-197.92 528.19,-188.66" style=""/>
<polygon fill="black" stroke="black" points="530.96,-190.8 534.11,-180.68 525.34,-186.63 530.96,-190.8" style=""/>
</g>
<!-- node6142 -->
<g id="node22" class="node" pointer-events="visible" data-name="node5118" data-comment="node6142">

<ellipse fill="none" stroke="red" stroke-width="2" cx="496.25" cy="-90" rx="42.34" ry="18" style=""/>
<text text-anchor="middle" x="496.25" y="-85.8" font-family="Times,serif" font-size="14.00" style="">CC(2,0)</text>
</g>
<!-- node3071&#45;&gt;node6142 -->
<g id="edge21" class="edge" data-name="node2559-&gt;node5118" data-comment="node3071-&gt;node6142">

<path fill="none" stroke="black" d="M535.16,-144.41C529.13,-136.13 521.7,-125.92 514.95,-116.66" style=""/>
<polygon fill="black" stroke="black" points="517.86,-114.71 509.14,-108.69 512.2,-118.84 517.86,-114.71" style=""/>
</g>
<!-- node6143 -->
<g id="node23" class="node" pointer-events="visible" data-name="node5119" data-comment="node6143">

<ellipse fill="none" stroke="black" cx="599.25" cy="-90" rx="42.34" ry="18" style=""/>
<text text-anchor="middle" x="599.25" y="-85.8" font-family="Times,serif" font-size="14.00" style="">CC(1,1)</text>
</g>
<!-- node3071&#45;&gt;node6143 -->
<g id="edge22" class="edge" data-name="node2559-&gt;node5119" data-comment="node3071-&gt;node6143">

<path fill="none" stroke="black" d="M559.57,-144.41C565.73,-136.13 573.31,-125.92 580.19,-116.66" style=""/>
<polygon fill="black" stroke="black" points="582.96,-118.8 586.11,-108.68 577.34,-114.63 582.96,-118.8" style=""/>
</g>
<!-- node6 -->
<!-- node44 -->
<g id="node42" class="node" pointer-events="visible" data-name="node44">

<ellipse fill="none" stroke="red" stroke-width="2" cx="469.25" cy="-594" rx="42.34" ry="18" style=""/>
<text text-anchor="middle" x="469.25" y="-589.8" font-family="Times,serif" font-size="14.00" style="">CC(1,0)</text>
</g>
<!-- node22&#45;&gt;node44 -->
<g id="edge41" class="edge" data-name="node22-&gt;node44">

<path fill="none" stroke="black" d="M469.25,-647.7C469.25,-640.41 469.25,-631.73 469.25,-623.54"/>
<polygon fill="black" stroke="black" points="472.75,-623.62 469.25,-613.62 465.75,-623.62 472.75,-623.62"/>
</g>
<!-- node45 -->
<g id="node43" class="node" pointer-events="visible" data-name="node45">

<ellipse fill="none" stroke="green" stroke-width="2" cx="572.25" cy="-594" rx="42.34" ry="18" style=""/>
<text text-anchor="middle" x="572.25" y="-589.8" font-family="Times,serif" font-size="14.00" style="">CC(0,1)</text>
</g>
<!-- node22&#45;&gt;node45 -->
<g id="edge42" class="edge" data-name="node22-&gt;node45">

<path fill="none" stroke="black" d="M491.09,-650.15C505.71,-640.22 525.15,-627.01 541.34,-616.01"/>
<polygon fill="black" stroke="black" points="542.88,-619.19 549.19,-610.67 538.95,-613.4 542.88,-619.19"/>
</g>
<!-- node6 -->
<g id="node46" class="node" pointer-events="visible" data-name="node6">

<ellipse fill="none" stroke="rgb(255, 0, 255)" cx="681.25" cy="-810" rx="42.34" ry="18" stroke-width="2"/>
<text text-anchor="middle" x="681.25" y="-805.8" font-family="Times,serif" font-size="14.00">CC(1,2)</text>
</g><g id="node24" class="node" pointer-events="visible" data-name="node10238" data-comment="node6">

<ellipse fill="none" stroke="red" stroke-width="2" cx="547.25" cy="-18" rx="42.34" ry="18" style=""/>
<text text-anchor="middle" x="547.25" y="-13.8" font-family="Times,serif" font-size="14.00" style="">CC(1,0)</text>
</g>
<!-- node3&#45;&gt;node6 -->

<!-- node3&#45;&gt;node6 -->
<g id="edge45" class="edge" data-name="node3-&gt;node6">

<path fill="none" stroke="black" d="M681.25,-863.7C681.25,-856.41 681.25,-847.73 681.25,-839.54"/>
<polygon fill="black" stroke="black" points="684.75,-839.62 681.25,-829.62 677.75,-839.62 684.75,-839.62"/>
</g><g id="edge23" class="edge" data-name="node5119-&gt;node10238" data-comment="node3-&gt;node6">

<path fill="none" stroke="black" d="M586.93,-72.41C580.77,-64.13 573.19,-53.92 566.31,-44.66" style=""/>
<polygon fill="black" stroke="black" points="569.16,-42.63 560.39,-36.68 563.54,-46.8 569.16,-42.63" style=""/>
</g>
<!-- node7 -->

<!-- node7 -->
<g id="node51" class="node" pointer-events="visible" data-name="node7">

<ellipse fill="none" stroke="rgb(255, 0, 0)" stroke-width="2" cx="787.25" cy="-810" rx="45.78" ry="18"/>
<text text-anchor="middle" x="787.25" y="-805.8" font-family="Times,serif" font-size="14.00">CC(-9,3)</text>
</g><g id="node25" class="node" pointer-events="visible" data-name="node10239" data-comment="node7">

<ellipse fill="none" stroke="green" stroke-width="2" cx="650.25" cy="-18" rx="42.34" ry="18" style=""/>
<text text-anchor="middle" x="650.25" y="-13.8" font-family="Times,serif" font-size="14.00" style="">CC(0,1)</text>
</g>
<!-- node3&#45;&gt;node7 -->

<!-- node3&#45;&gt;node7 -->
<g id="edge50" class="edge" data-name="node3-&gt;node7">

<path fill="none" stroke="black" d="M703.47,-866.33C718.49,-856.41 738.56,-843.15 755.29,-832.1"/>
<polygon fill="black" stroke="black" points="757.01,-835.16 763.43,-826.73 753.16,-829.32 757.01,-835.16"/>
</g><g id="edge24" class="edge" data-name="node5119-&gt;node10239" data-comment="node3-&gt;node7">

<path fill="none" stroke="black" d="M611.34,-72.41C617.37,-64.13 624.8,-53.92 631.55,-44.66" style=""/>
<polygon fill="black" stroke="black" points="634.3,-46.84 637.36,-36.69 628.64,-42.71 634.3,-46.84" style=""/>
</g>
<!-- node12 -->

<!-- node12 -->
<g id="node47" class="node" pointer-events="visible" data-name="node12">

<ellipse fill="none" stroke="rgb(0, 0, 0)" cx="681.25" cy="-738" rx="42.34" ry="18"/>
<text text-anchor="middle" x="681.25" y="-733.8" font-family="Times,serif" font-size="14.00">CC(1,1)</text>
</g>
<!-- node6&#45;&gt;node12 -->

<!-- node6&#45;&gt;node12 -->
<g id="edge46" class="edge" data-name="node6-&gt;node12">

<path fill="none" stroke="black" d="M681.25,-791.7C681.25,-784.41 681.25,-775.73 681.25,-767.54"/>
<polygon fill="black" stroke="black" points="684.75,-767.62 681.25,-757.62 677.75,-767.62 684.75,-767.62"/>
</g>
<!-- node13 -->

<!-- node13 -->
<g id="node50" class="node" pointer-events="visible" data-name="node13">

<ellipse fill="none" stroke="rgb(255, 0, 0)" cx="787.25" cy="-738" rx="45.78" ry="18" stroke-width="2"/>
<text text-anchor="middle" x="787.25" y="-733.8" font-family="Times,serif" font-size="14.00">CC(-4,2)</text>
</g>
<!-- node6&#45;&gt;node13 -->

<!-- node6&#45;&gt;node13 -->
<g id="edge49" class="edge" data-name="node6-&gt;node13">

<path fill="none" stroke="black" d="M703.47,-794.33C718.49,-784.41 738.56,-771.15 755.29,-760.1"/>
<polygon fill="black" stroke="black" points="757.01,-763.16 763.43,-754.73 753.16,-757.32 757.01,-763.16"/>
</g>
<!-- node26 -->
<g id="node28" class="node" pointer-events="visible" data-name="node20" data-comment="node26">

<ellipse fill="none" stroke="red" stroke-width="2" cx="263.25" cy="-666" rx="42.34" ry="18" style=""/>
<text text-anchor="middle" x="263.25" y="-661.8" font-family="Times,serif" font-size="14.00" style="">CC(6,0)</text>
</g>
<!-- node13&#45;&gt;node26 -->
<g id="edge27" class="edge" data-name="node10-&gt;node20" data-comment="node13-&gt;node26">

<path fill="none" stroke="black" d="M344.41,-722.15C329.79,-712.22 310.35,-699.01 294.16,-688.01"/>
<polygon fill="black" stroke="black" points="296.55,-685.4 286.31,-682.67 292.62,-691.19 296.55,-685.4"/>
</g>
<!-- node27 -->
<g id="node29" class="node" pointer-events="visible" data-name="node21" data-comment="node27">

<ellipse fill="none" stroke="black" cx="366.25" cy="-666" rx="42.34" ry="18" style=""/>
<text text-anchor="middle" x="366.25" y="-661.8" font-family="Times,serif" font-size="14.00" style="">CC(5,1)</text>
</g>
<!-- node13&#45;&gt;node27 -->
<g id="edge28" class="edge" data-name="node10-&gt;node21" data-comment="node13-&gt;node27">

<path fill="none" stroke="black" d="M366.25,-719.7C366.25,-712.41 366.25,-703.73 366.25,-695.54"/>
<polygon fill="black" stroke="black" points="369.75,-695.62 366.25,-685.62 362.75,-695.62 369.75,-695.62"/>
</g>
<!-- node54 -->
<g id="node30" class="node" pointer-events="visible" data-name="node42" data-comment="node54">

<ellipse fill="none" stroke="red" stroke-width="2" cx="263.25" cy="-594" rx="42.34" ry="18" style=""/>
<text text-anchor="middle" x="263.25" y="-589.8" font-family="Times,serif" font-size="14.00" style="">CC(5,0)</text>
</g>
<!-- node27&#45;&gt;node54 -->
<g id="edge29" class="edge" data-name="node21-&gt;node42" data-comment="node27-&gt;node54">

<path fill="none" stroke="black" d="M344.41,-650.15C329.79,-640.22 310.35,-627.01 294.16,-616.01" style=""/>
<polygon fill="black" stroke="black" points="296.55,-613.4 286.31,-610.67 292.62,-619.19 296.55,-613.4" style=""/>
</g>
<!-- node55 -->
<g id="node31" class="node" pointer-events="visible" data-name="node43" data-comment="node55">

<ellipse fill="none" stroke="black" cx="366.25" cy="-594" rx="42.34" ry="18" style=""/>
<text text-anchor="middle" x="366.25" y="-589.8" font-family="Times,serif" font-size="14.00" style="">CC(4,1)</text>
</g>
<!-- node27&#45;&gt;node55 -->
<g id="edge30" class="edge" data-name="node21-&gt;node43" data-comment="node27-&gt;node55">

<path fill="none" stroke="black" d="M366.25,-647.7C366.25,-640.41 366.25,-631.73 366.25,-623.54" style=""/>
<polygon fill="black" stroke="black" points="369.75,-623.62 366.25,-613.62 362.75,-623.62 369.75,-623.62" style=""/>
</g>
<!-- node110 -->
<g id="node32" class="node" pointer-events="visible" data-name="node86" data-comment="node110">

<ellipse fill="none" stroke="red" stroke-width="2" cx="356.25" cy="-522" rx="42.34" ry="18" style=""/>
<text text-anchor="middle" x="356.25" y="-517.8" font-family="Times,serif" font-size="14.00" style="">CC(4,0)</text>
</g>
<!-- node55&#45;&gt;node110 -->
<g id="edge31" class="edge" data-name="node43-&gt;node86" data-comment="node55-&gt;node110">

<path fill="none" stroke="black" d="M363.78,-575.7C362.72,-568.32 361.47,-559.52 360.29,-551.25" style=""/>
<polygon fill="black" stroke="black" points="363.79,-551.01 358.91,-541.6 356.86,-552 363.79,-551.01" style=""/>
</g>
<!-- node111 -->
<g id="node33" class="node" pointer-events="visible" data-name="node87" data-comment="node111">

<ellipse fill="none" stroke="black" cx="459.25" cy="-522" rx="42.34" ry="18" style=""/>
<text text-anchor="middle" x="459.25" y="-517.8" font-family="Times,serif" font-size="14.00" style="">CC(3,1)</text>
</g>
<!-- node55&#45;&gt;node111 -->
<g id="edge32" class="edge" data-name="node43-&gt;node87" data-comment="node55-&gt;node111">

<path fill="none" stroke="black" d="M386.43,-577.81C399.23,-568.18 415.99,-555.56 430.2,-544.86" style=""/>
<polygon fill="black" stroke="black" points="432.02,-547.88 437.9,-539.07 427.81,-542.29 432.02,-547.88" style=""/>
</g>
<!-- node222 -->
<g id="node34" class="node" pointer-events="visible" data-name="node174" data-comment="node222">

<ellipse fill="none" stroke="red" stroke-width="2" cx="440.25" cy="-450" rx="42.34" ry="18" style=""/>
<text text-anchor="middle" x="440.25" y="-445.8" font-family="Times,serif" font-size="14.00" style="">CC(3,0)</text>
</g>
<!-- node111&#45;&gt;node222 -->
<g id="edge33" class="edge" data-name="node87-&gt;node174" data-comment="node111-&gt;node222">

<path fill="none" stroke="black" d="M454.55,-503.7C452.53,-496.24 450.11,-487.32 447.84,-478.97" style=""/>
<polygon fill="black" stroke="black" points="451.29,-478.3 445.29,-469.57 444.53,-480.13 451.29,-478.3" style=""/>
</g>
<!-- node223 -->
<g id="node35" class="node" pointer-events="visible" data-name="node175" data-comment="node223">

<ellipse fill="none" stroke="black" cx="543.25" cy="-450" rx="42.34" ry="18" style=""/>
<text text-anchor="middle" x="543.25" y="-445.8" font-family="Times,serif" font-size="14.00" style="">CC(2,1)</text>
</g>
<!-- node111&#45;&gt;node223 -->
<g id="edge34" class="edge" data-name="node87-&gt;node175" data-comment="node111-&gt;node223">

<path fill="none" stroke="black" d="M477.89,-505.46C489.09,-496.13 503.55,-484.09 516.01,-473.7" style=""/>
<polygon fill="black" stroke="black" points="518.06,-476.55 523.5,-467.46 513.57,-471.17 518.06,-476.55" style=""/>
</g>
<!-- node446 -->
<g id="node36" class="node" pointer-events="visible" data-name="node350" data-comment="node446">

<ellipse fill="none" stroke="red" stroke-width="2" cx="534.25" cy="-378" rx="42.34" ry="18" style=""/>
<text text-anchor="middle" x="534.25" y="-373.8" font-family="Times,serif" font-size="14.00" style="">CC(2,0)</text>
</g>
<!-- node223&#45;&gt;node446 -->
<g id="edge35" class="edge" data-name="node175-&gt;node350" data-comment="node223-&gt;node446">

<path fill="none" stroke="black" d="M541.03,-431.7C540.08,-424.32 538.95,-415.52 537.88,-407.25" style=""/>
<polygon fill="black" stroke="black" points="541.39,-407.08 536.64,-397.61 534.45,-407.97 541.39,-407.08" style=""/>
</g>
<!-- node447 -->
<g id="node37" class="node" pointer-events="visible" data-name="node351" data-comment="node447">

<ellipse fill="none" stroke="black" cx="637.25" cy="-378" rx="42.34" ry="18" style=""/>
<text text-anchor="middle" x="637.25" y="-373.8" font-family="Times,serif" font-size="14.00" style="">CC(1,1)</text>
</g>
<!-- node223&#45;&gt;node447 -->
<g id="edge36" class="edge" data-name="node175-&gt;node351" data-comment="node223-&gt;node447">

<path fill="none" stroke="black" d="M563.65,-433.81C576.58,-424.18 593.52,-411.56 607.89,-400.86" style=""/>
<polygon fill="black" stroke="black" points="609.75,-403.84 615.68,-395.06 605.57,-398.23 609.75,-403.84" style=""/>
</g>
<!-- node14 -->
<g id="node38" class="node" pointer-events="visible" data-name="node702" data-comment="node14">

<ellipse fill="none" stroke="red" stroke-width="2" cx="546.25" cy="-306" rx="42.34" ry="18" style=""/>
<text text-anchor="middle" x="546.25" y="-301.8" font-family="Times,serif" font-size="14.00" style="">CC(1,0)</text>
</g>
<!-- node7&#45;&gt;node14 -->
<g id="edge37" class="edge" data-name="node351-&gt;node702" data-comment="node7-&gt;node14">

<path fill="none" stroke="black" d="M617.5,-361.81C605.1,-352.27 588.89,-339.8 575.07,-329.17" style=""/>
<polygon fill="black" stroke="black" points="577.22,-326.41 567.16,-323.08 572.95,-331.95 577.22,-326.41" style=""/>
</g>
<!-- node15 -->
<g id="node39" class="node" pointer-events="visible" data-name="node703" data-comment="node15">

<ellipse fill="none" stroke="green" stroke-width="2" cx="649.25" cy="-306" rx="42.34" ry="18" style=""/>
<text text-anchor="middle" x="649.25" y="-301.8" font-family="Times,serif" font-size="14.00" style="">CC(0,1)</text>
</g>
<!-- node7&#45;&gt;node15 -->
<g id="edge38" class="edge" data-name="node351-&gt;node703" data-comment="node7-&gt;node15">

<path fill="none" stroke="black" d="M640.22,-359.7C641.48,-352.32 642.99,-343.52 644.41,-335.25" style=""/>
<polygon fill="black" stroke="black" points="647.82,-336.04 646.06,-325.6 640.92,-334.86 647.82,-336.04" style=""/>
</g>
<!-- node28 -->

<!-- node14&#45;&gt;node28 -->

<!-- node29 -->

<!-- node14&#45;&gt;node29 -->


<!-- node24 -->
<g id="node48" class="node" pointer-events="visible" data-name="node24">

<ellipse fill="none" stroke="red" stroke-width="2" cx="681.25" cy="-666" rx="42.34" ry="18" style=""/>
<text text-anchor="middle" x="681.25" y="-661.8" font-family="Times,serif" font-size="14.00" style="">CC(1,0)</text>
</g>
<!-- node12&#45;&gt;node24 -->
<g id="edge47" class="edge" data-name="node12-&gt;node24">

<path fill="none" stroke="black" d="M681.25,-719.7C681.25,-712.41 681.25,-703.73 681.25,-695.54"/>
<polygon fill="black" stroke="black" points="684.75,-695.62 681.25,-685.62 677.75,-695.62 684.75,-695.62"/>
</g>
<!-- node25 -->
<g id="node49" class="node" pointer-events="visible" data-name="node25">

<ellipse fill="none" stroke="green" stroke-width="2" cx="784.25" cy="-666" rx="42.34" ry="18" style=""/>
<text text-anchor="middle" x="784.25" y="-661.8" font-family="Times,serif" font-size="14.00" style="">CC(0,1)</text>
</g>
<!-- node12&#45;&gt;node25 -->
<g id="edge48" class="edge" data-name="node12-&gt;node25">

<path fill="none" stroke="black" d="M703.09,-722.15C717.71,-712.22 737.15,-699.01 753.34,-688.01"/>
<polygon fill="black" stroke="black" points="754.88,-691.19 761.19,-682.67 750.95,-685.4 754.88,-691.19"/>
</g>
</g>
</svg>